<svg width="68" height="68" viewBox="0 0 68 68" fill="none" xmlns="http://www.w3.org/2000/svg">
<g filter="url(#filter0_d_1_1397)">
<circle cx="32" cy="33" r="21" fill="white"/>
</g>
<path d="M39.491 39.168L38.6462 28.4765C38.5938 27.7877 38.0135 27.2483 37.3257 27.2483H35.6569V29.7315C35.6569 30.039 35.409 30.288 35.1028 30.288C34.797 30.288 34.5488 30.039 34.5488 29.7315V27.2483H29.4515V29.7315C29.4515 30.039 29.2032 30.288 28.8974 30.288C28.5912 30.288 28.3433 30.039 28.3433 29.7315V27.2483H26.6745C25.9868 27.2483 25.4065 27.7877 25.354 28.475L24.5089 39.1695C24.4436 40.026 24.7394 40.8785 25.3204 41.5084C25.9015 42.1383 26.7251 42.5 27.5802 42.5H36.42C37.2751 42.5 38.0988 42.1383 38.6799 41.5084C39.2609 40.8785 39.5567 40.026 39.491 39.168ZM31.2036 36.7332L31.2212 36.7488C31.2212 36.7413 31.2212 36.7488 31.2389 36.7645C31.2212 36.7488 31.2212 36.7488 31.2036 36.7332L31.2389 36.7645C31.2389 36.7645 31.2212 36.7488 31.2036 36.7332Z" fill="#212121"/>
<path d="M32.0024 23.5C29.986 23.5 28.3456 25.1478 28.3456 27.1729V27.2482H29.4538V27.1729C29.4538 25.7614 30.597 24.6129 32.0024 24.6129C33.4079 24.6129 34.5511 25.7614 34.5511 27.1729V27.2482H35.6592V27.1729C35.6592 25.1478 34.0188 23.5 32.0024 23.5Z" fill="#212121"/>
<defs>
<filter id="filter0_d_1_1397" x="0" y="0" width="68" height="68" filterUnits="userSpaceOnUse" color-interpolation-filters="sRGB">
<feFlood flood-opacity="0" result="BackgroundImageFix"/>
<feColorMatrix in="SourceAlpha" type="matrix" values="0 0 0 0 0 0 0 0 0 0 0 0 0 0 0 0 0 0 127 0" result="hardAlpha"/>
<feOffset dx="2" dy="1"/>
<feGaussianBlur stdDeviation="6.5"/>
<feColorMatrix type="matrix" values="0 0 0 0 0 0 0 0 0 0 0 0 0 0 0 0 0 0 0.26 0"/>
<feBlend mode="normal" in2="BackgroundImageFix" result="effect1_dropShadow_1_1397"/>
<feBlend mode="normal" in="SourceGraphic" in2="effect1_dropShadow_1_1397" result="shape"/>
</filter>
</defs>
</svg>
